<svg xmlns="http://www.w3.org/2000/svg" width="207.563" height="64.049" viewBox="0 0 207.563 64.049">
  <g id="Group_1" data-name="Group 1" transform="translate(0 120.653)">
    <g id="Group_1-2" data-name="Group 1" transform="translate(0 -103.902)">
      <path id="Path_1" data-name="Path 1" d="M-10.45,0-22.275,11.742V39.414l7.884,7.883h7.882l7.882-7.883H-14.391V7.883h7.964V19.707l7.884-7.884V0Z" transform="translate(22.275)" fill="#06060b"/>
    </g>
    <g id="Group_2" data-name="Group 2" transform="translate(31.692 -104.887)">
      <path id="Path_2" data-name="Path 2" d="M-13.933-6.967V25.55h-7.882v-40.4L-29.7-6.967V25.55l7.884,7.883h1.97l5.912-5.912v5.912h4.928l7.882-7.883H-6.051v-40.4Z" transform="translate(29.699 14.85)" fill="#06060b"/>
    </g>
    <g id="Group_3" data-name="Group 3" transform="translate(64.288 -120.653)">
      <path id="Path_3" data-name="Path 3" d="M-6.966,0l-7.882,7.883V64.049H-9.92l7.883-7.883H-6.966Z" transform="translate(14.848)" fill="#06060b"/>
    </g>
    <g id="Group_4" data-name="Group 4" transform="translate(81.119 -120.653)">
      <path id="Path_4" data-name="Path 4" d="M-6.967,0l-7.884,7.883V64.049h4.926l7.884-7.883H-6.967V24.634h3.941L.915,16.752H-6.967Z" transform="translate(14.851)" fill="#06060b"/>
    </g>
    <g id="Group_5" data-name="Group 5" transform="translate(99.921 -104.887)">
      <path id="Path_5" data-name="Path 5" d="M-13.932-6.967V25.55h-7.883v-40.4L-29.7-6.967V25.55l7.882,7.883h1.971l5.912-5.912v5.912H-9l7.882-7.883H-6.049v-40.4Z" transform="translate(29.697 14.85)" fill="#06060b"/>
    </g>
    <g id="Group_6" data-name="Group 6" transform="translate(132.515 -103.902)">
      <path id="Path_6" data-name="Path 6" d="M-10.452,0-22.278,11.824V47.3h4.928l7.882-7.883h-4.926V7.883h7.884V19.707l7.882-7.884V0Z" transform="translate(22.278)" fill="#06060b"/>
    </g>
    <g id="Group_7" data-name="Group 7" transform="translate(162.156 -103.902)">
      <path id="Path_7" data-name="Path 7" d="M-10.452,0-22.278,11.824v9.855l7.884-7.883V7.883h7.884v9.854h-3.941L-22.278,29.479v9.935l7.884,7.883h1.971l5.913-5.912V47.3h4.926L6.3,39.414H1.371V0Zm-3.943,25.619h7.884v13.8h-7.884Z" transform="translate(22.278)" fill="#06060b"/>
    </g>
    <g id="Group_8" data-name="Group 8" transform="translate(194.753 -120.653)">
      <path id="Path_8" data-name="Path 8" d="M-6.966,0l-7.882,7.883V64.049h4.927l7.883-7.883H-6.966Z" transform="translate(14.848)" fill="#06060b"/>
    </g>
  </g>
</svg>
