<svg xmlns="http://www.w3.org/2000/svg" width="146.509" height="494.165" viewBox="0 0 146.509 494.165">
  <g id="Group_15" data-name="Group 15" transform="translate(120.653 494.165) rotate(-90)">
    <g id="Group_1" data-name="Group 1" transform="translate(0 -82.335)">
      <path id="Path_1" data-name="Path 1" d="M5.877,0-22.275,26.86v63.3L-3.506,108.19H15.26L34.026,90.158H-3.506V18.031h18.96V45.08L34.224,27.046V0Z" transform="translate(22.275)" fill="#06060b"/>
    </g>
    <g id="Group_2" data-name="Group 2" transform="translate(75.453 -84.59)">
      <path id="Path_2" data-name="Path 2" d="M7.836,3.182v74.38H-10.93V-14.85L-29.7,3.182v74.38L-10.93,95.6h4.69L7.836,82.071V95.6H19.568L38.334,77.563H26.6V-14.85Z" transform="translate(29.699 14.85)" fill="#06060b"/>
    </g>
    <g id="Group_3" data-name="Group 3" transform="translate(153.056 -120.653)">
      <path id="Path_3" data-name="Path 3" d="M3.918,0-14.848,18.032V146.508H-3.116l18.767-18.032H3.918Z" transform="translate(14.848)" fill="#06060b"/>
    </g>
    <g id="Group_4" data-name="Group 4" transform="translate(193.129 -120.653)">
      <path id="Path_4" data-name="Path 4" d="M3.918,0-14.851,18.032V146.508H-3.122l18.769-18.032H3.918V56.349H13.3l9.383-18.031H3.918Z" transform="translate(14.851)" fill="#06060b"/>
    </g>
    <g id="Group_5" data-name="Group 5" transform="translate(237.892 -84.59)">
      <path id="Path_5" data-name="Path 5" d="M7.836,3.182v74.38H-10.931V-14.85L-29.7,3.182v74.38L-10.931,95.6H-6.24L7.836,82.071V95.6H19.568L38.333,77.563H26.6V-14.85Z" transform="translate(29.697 14.85)" fill="#06060b"/>
    </g>
    <g id="Group_6" data-name="Group 6" transform="translate(315.492 -82.335)">
      <path id="Path_6" data-name="Path 6" d="M5.878,0-22.278,27.046V108.19h11.732L8.22,90.158H-3.509V18.031H15.261V45.08L34.026,27.046V0Z" transform="translate(22.278)" fill="#06060b"/>
    </g>
    <g id="Group_7" data-name="Group 7" transform="translate(386.059 -82.335)">
      <path id="Path_7" data-name="Path 7" d="M5.878,0-22.278,27.046V49.588L-3.509,31.556V18.031H15.261v22.54H5.878l-28.156,26.86V90.158L-3.509,108.19H1.183L15.261,94.667V108.19H26.989L45.759,90.158H34.026V0ZM-3.509,58.6H15.261V90.159H-3.509Z" transform="translate(22.278)" fill="#06060b"/>
    </g>
    <g id="Group_8" data-name="Group 8" transform="translate(463.667 -120.653)">
      <path id="Path_8" data-name="Path 8" d="M3.918,0-14.848,18.032V146.508h11.73L15.65,128.476H3.918Z" transform="translate(14.848)" fill="#06060b"/>
    </g>
  </g>
</svg>
